<svg width="24" height="18" viewBox="0 0 24 18" fill="none" xmlns="http://www.w3.org/2000/svg">
<path d="M0.390382 7.91696C0.14042 8.167 0 8.50608 0 8.85963C0 9.21318 0.14042 9.55226 0.390382 9.8023L7.93305 17.345C8.05604 17.4723 8.20317 17.5739 8.36584 17.6438C8.52851 17.7136 8.70347 17.7504 8.88051 17.752C9.05755 17.7535 9.23313 17.7198 9.39699 17.6527C9.56085 17.5857 9.70972 17.4867 9.83491 17.3615C9.9601 17.2363 10.0591 17.0874 10.1261 16.9236C10.1932 16.7597 10.2269 16.5841 10.2254 16.4071C10.2238 16.2301 10.1871 16.0551 10.1172 15.8924C10.0473 15.7298 9.94573 15.5826 9.81838 15.4596L4.55172 10.193L22.209 10.193C22.5627 10.193 22.9018 10.0525 23.1519 9.80244C23.4019 9.55239 23.5424 9.21325 23.5424 8.85963C23.5424 8.50601 23.4019 8.16687 23.1519 7.91682C22.9018 7.66677 22.5627 7.5263 22.209 7.5263L4.55172 7.5263L9.81838 2.25963C10.0613 2.00816 10.1957 1.67136 10.1926 1.32176C10.1896 0.972166 10.0494 0.637749 9.80214 0.390537C9.55493 0.143328 9.22051 0.00310135 8.87092 6.29425e-05C8.52132 -0.00297546 8.18452 0.131418 7.93305 0.374294L0.390382 7.91696Z" fill="#FFFEFE"/>
</svg>
