<svg width="24" height="18" viewBox="0 0 24 18" fill="none" xmlns="http://www.w3.org/2000/svg">
<path d="M23.152 7.91696C23.4019 8.167 23.5424 8.50608 23.5424 8.85963C23.5424 9.21318 23.4019 9.55226 23.152 9.8023L15.6093 17.345C15.4863 17.4723 15.3392 17.5739 15.1765 17.6438C15.0138 17.7136 14.8389 17.7504 14.6618 17.752C14.4848 17.7535 14.3092 17.7198 14.1454 17.6527C13.9815 17.5857 13.8326 17.4867 13.7074 17.3615C13.5823 17.2363 13.4833 17.0874 13.4162 16.9236C13.3492 16.7597 13.3154 16.5841 13.317 16.4071C13.3185 16.2301 13.3553 16.0551 13.4252 15.8924C13.4951 15.7298 13.5966 15.5826 13.724 15.4596L18.9906 10.193L1.33331 10.193C0.979689 10.193 0.640549 10.0525 0.390499 9.80244C0.140451 9.55239 -2.28882e-05 9.21325 -2.28882e-05 8.85963C-2.28882e-05 8.50601 0.140451 8.16687 0.390499 7.91682C0.640549 7.66677 0.979689 7.5263 1.33331 7.5263L18.9906 7.5263L13.724 2.25963C13.4811 2.00816 13.3467 1.67136 13.3497 1.32176C13.3528 0.972166 13.493 0.637749 13.7402 0.390537C13.9874 0.143328 14.3218 0.00310135 14.6714 6.29425e-05C15.021 -0.00297546 15.3578 0.131418 15.6093 0.374294L23.152 7.91696Z" fill="#FFFEFE"/>
</svg>
