<svg width="36" height="27" viewBox="0 0 36 27" fill="none" xmlns="http://www.w3.org/2000/svg">
<path d="M34.728 11.8754C35.103 12.2504 35.3136 12.759 35.3136 13.2894C35.3136 13.8197 35.103 14.3283 34.728 14.7034L23.414 26.0174C23.2295 26.2084 23.0088 26.3607 22.7648 26.4656C22.5208 26.5704 22.2584 26.6255 21.9928 26.6279C21.7273 26.6302 21.4639 26.5796 21.2181 26.479C20.9723 26.3784 20.749 26.2299 20.5612 26.0421C20.3735 25.8544 20.2249 25.6311 20.1244 25.3853C20.0238 25.1395 19.9732 24.8761 19.9755 24.6106C19.9778 24.345 20.033 24.0826 20.1378 23.8385C20.2426 23.5945 20.395 23.3738 20.586 23.1894L28.486 15.2894L2.00003 15.2894C1.46959 15.2894 0.960884 15.0786 0.585812 14.7036C0.210739 14.3285 2.67029e-05 13.8198 2.67029e-05 13.2894C2.67029e-05 12.7589 0.210739 12.2502 0.585812 11.8751C0.960884 11.5001 1.46959 11.2894 2.00003 11.2894L28.486 11.2894L20.586 3.38935C20.2217 3.01215 20.0201 2.50694 20.0247 1.98255C20.0292 1.45816 20.2396 0.956532 20.6104 0.585716C20.9812 0.214901 21.4828 0.00456047 22.0072 3.8147e-06C22.5316 -0.00455284 23.0368 0.197035 23.414 0.561352L34.728 11.8754Z" fill="white"/>
</svg>
