<svg width="12" height="20" viewBox="0 0 12 20" fill="none" xmlns="http://www.w3.org/2000/svg">
<path fill-rule="evenodd" clip-rule="evenodd" d="M4.238 1.538C5.22244 0.553396 6.55768 0.000164749 7.95 0H10.65C10.8489 0 11.0397 0.0790175 11.1803 0.21967C11.321 0.360322 11.4 0.551088 11.4 0.75V4.35C11.4 4.54891 11.321 4.73968 11.1803 4.88033C11.0397 5.02098 10.8489 5.1 10.65 5.1H7.95C7.9303 5.1 7.9108 5.10388 7.8926 5.11142C7.8744 5.11896 7.85786 5.13 7.84393 5.14393C7.83 5.15786 7.81896 5.1744 7.81142 5.1926C7.80388 5.2108 7.8 5.2303 7.8 5.25V7.2H10.65C10.764 7.19994 10.8766 7.22587 10.979 7.27583C11.0815 7.32579 11.1713 7.39846 11.2415 7.48832C11.3117 7.57817 11.3604 7.68285 11.3841 7.79439C11.4078 7.90593 11.4057 8.02139 11.378 8.132L10.478 11.732C10.4374 11.8943 10.3437 12.0384 10.2118 12.1413C10.0799 12.2442 9.91731 12.3001 9.75 12.3H7.8V18.75C7.8 18.9489 7.72098 19.1397 7.58033 19.2803C7.43968 19.421 7.24891 19.5 7.05 19.5H3.45C3.25109 19.5 3.06032 19.421 2.91967 19.2803C2.77902 19.1397 2.7 18.9489 2.7 18.75V12.3H0.75C0.551088 12.3 0.360322 12.221 0.21967 12.0803C0.0790175 11.9397 0 11.7489 0 11.55V7.95C0 7.85151 0.0193993 7.75398 0.0570903 7.66299C0.0947813 7.57199 0.150026 7.48931 0.21967 7.41967C0.289314 7.35003 0.371993 7.29478 0.462987 7.25709C0.553982 7.2194 0.651509 7.2 0.75 7.2H2.7V5.25C2.70016 3.85768 3.2534 2.52244 4.238 1.538ZM7.95 1.5C6.95544 1.5 6.00161 1.89509 5.29835 2.59835C4.59509 3.30161 4.2 4.25544 4.2 5.25V7.95C4.2 8.14891 4.12098 8.33968 3.98033 8.48033C3.83968 8.62098 3.64891 8.7 3.45 8.7H1.5V10.8H3.45C3.64891 10.8 3.83968 10.879 3.98033 11.0197C4.12098 11.1603 4.2 11.3511 4.2 11.55V18H6.3V11.55C6.3 11.3511 6.37902 11.1603 6.51967 11.0197C6.66032 10.879 6.85109 10.8 7.05 10.8H9.164L9.689 8.7H7.05C6.85109 8.7 6.66032 8.62098 6.51967 8.48033C6.37902 8.33968 6.3 8.14891 6.3 7.95V5.25C6.3 4.81239 6.47384 4.39271 6.78327 4.08327C7.09271 3.77384 7.51239 3.6 7.95 3.6H9.9V1.5H7.95Z" fill="white"/>
</svg>
