<svg width="48" height="48" viewBox="0 0 48 48" fill="none" xmlns="http://www.w3.org/2000/svg">
<path d="M25.45 34.55C24.4833 33.5833 24 32.4 24 31C24 29.6 24.4833 28.4167 25.45 27.45C26.4167 26.4833 27.6 26 29 26C30.4 26 31.5833 26.4833 32.55 27.45C33.5167 28.4167 34 29.6 34 31C34 32.4 33.5167 33.5833 32.55 34.55C31.5833 35.5167 30.4 36 29 36C27.6 36 26.4167 35.5167 25.45 34.55ZM10 44C8.9 44 7.95867 43.6087 7.176 42.826C6.39333 42.0433 6.00133 41.1013 6 40V12C6 10.9 6.392 9.95867 7.176 9.17601C7.96 8.39334 8.90133 8.00134 10 8.00001H12V6.00001C12 5.43334 12.192 4.95867 12.576 4.57601C12.96 4.19334 13.4347 4.00134 14 4.00001C14.5653 3.99867 15.0407 4.19067 15.426 4.57601C15.8113 4.96134 16.0027 5.43601 16 6.00001V8.00001H32V6.00001C32 5.43334 32.192 4.95867 32.576 4.57601C32.96 4.19334 33.4347 4.00134 34 4.00001C34.5653 3.99867 35.0407 4.19067 35.426 4.57601C35.8113 4.96134 36.0027 5.43601 36 6.00001V8.00001H38C39.1 8.00001 40.042 8.39201 40.826 9.17601C41.61 9.96001 42.0013 10.9013 42 12V40C42 41.1 41.6087 42.042 40.826 42.826C40.0433 43.61 39.1013 44.0013 38 44H10ZM10 40H38V20H10V40ZM10 16H38V12H10V16Z" fill="#466378"/>
</svg>
