<svg width="24" height="24" viewBox="0 0 24 24" fill="none" xmlns="http://www.w3.org/2000/svg">
<path d="M16.8 1.6001C17.4366 1.6001 18.047 1.85295 18.4971 2.30304C18.9472 2.75313 19.2 3.36358 19.2 4.0001V20.0001C19.2 20.6366 18.9472 21.2471 18.4971 21.6972C18.047 22.1472 17.4366 22.4001 16.8 22.4001H7.20005C6.56353 22.4001 5.95308 22.1472 5.50299 21.6972C5.05291 21.2471 4.80005 20.6366 4.80005 20.0001V4.0001C4.80005 3.36358 5.05291 2.75313 5.50299 2.30304C5.95308 1.85295 6.56353 1.6001 7.20005 1.6001H16.8ZM7.20005 3.2001C6.98788 3.2001 6.78439 3.28438 6.63436 3.43441C6.48433 3.58444 6.40005 3.78792 6.40005 4.0001V20.0001C6.40005 20.2123 6.48433 20.4158 6.63436 20.5658C6.78439 20.7158 6.98788 20.8001 7.20005 20.8001H16.8C17.0122 20.8001 17.2157 20.7158 17.3657 20.5658C17.5158 20.4158 17.6 20.2123 17.6 20.0001V4.0001C17.6 3.78792 17.5158 3.58444 17.3657 3.43441C17.2157 3.28438 17.0122 3.2001 16.8 3.2001H7.20005ZM14.512 18.6513C14.6386 18.677 14.7525 18.7457 14.8342 18.8457C14.916 18.9457 14.9606 19.0709 14.9606 19.2001C14.9606 19.3293 14.916 19.4545 14.8342 19.5545C14.7525 19.6545 14.6386 19.7232 14.512 19.7489L14.4 19.7601H9.60005C9.45153 19.7601 9.30909 19.7011 9.20407 19.5961C9.09905 19.4911 9.04005 19.3486 9.04005 19.2001C9.04005 19.0516 9.09905 18.9091 9.20407 18.8041C9.30909 18.6991 9.45153 18.6401 9.60005 18.6401H14.4L14.512 18.6513Z" fill="white"/>
</svg>
