<svg width="15" height="20" viewBox="0 0 15 20" fill="none" xmlns="http://www.w3.org/2000/svg">
<path d="M6.15 13.0967C5.644 15.8227 5.028 18.4367 3.2 19.8017C2.637 15.6817 4.02901 12.5867 4.675 9.3017C3.573 7.3917 4.808 3.5467 7.132 4.4937C9.992 5.6597 4.65501 11.5957 8.23801 12.3377C11.979 13.1117 13.507 5.6547 11.187 3.2287C7.835 -0.272301 1.43 3.1497 2.218 8.1627C2.41 9.3887 3.639 9.7607 2.709 11.4527C0.564005 10.9617 -0.0759951 9.2197 0.00700486 6.8967C0.139005 3.0967 3.324 0.434699 6.518 0.0666989C10.558 -0.399301 14.349 1.5937 14.872 5.5067C15.462 9.9227 13.049 14.7067 8.73001 14.3617C7.55901 14.2687 7.067 13.6717 6.15 13.0967Z" fill="white"/>
</svg>
