<svg width="22" height="18" viewBox="0 0 22 18" fill="none" xmlns="http://www.w3.org/2000/svg">
<path fill-rule="evenodd" clip-rule="evenodd" d="M13.7736 0.0807597C14.2816 -0.0062403 14.8506 -0.0352402 15.3866 0.0557598C16.3414 0.217029 17.226 0.66039 17.9266 1.32876C18.3826 1.33876 18.8316 1.24876 19.2286 1.12076C19.6122 0.995313 19.9805 0.827264 20.3266 0.61976L20.3356 0.61376C20.4796 0.517814 20.6523 0.474614 20.8246 0.491481C20.9968 0.508348 21.1579 0.584244 21.2805 0.706305C21.4032 0.828367 21.4798 0.989084 21.4975 1.16121C21.5152 1.33334 21.4728 1.5063 21.3776 1.65076C21.1706 1.96576 20.8816 2.52776 20.5586 3.15776L20.4036 3.45876C20.2186 3.81876 20.0286 4.18276 19.8516 4.49476C19.7406 4.69076 19.6216 4.88976 19.5016 5.06176V5.33576C19.5139 6.9744 19.1997 8.59908 18.5773 10.115C17.955 11.6309 17.0369 13.0077 15.8768 14.1649C14.7166 15.3222 13.3376 16.2368 11.8201 16.8554C10.3027 17.474 8.6772 17.7841 7.0386 17.7678C4.66388 17.7711 2.33897 17.0869 0.344596 15.7978C0.201424 15.7058 0.0937908 15.5678 0.0393756 15.4066C-0.0150396 15.2453 -0.0130015 15.0704 0.045155 14.9105C0.103311 14.7505 0.214129 14.6151 0.359405 14.5265C0.504681 14.4379 0.675779 14.4013 0.844596 14.4228C1.1446 14.4594 1.44626 14.4778 1.7496 14.4778C2.83023 14.4738 3.89725 14.2364 4.8776 13.7818C4.2635 13.5024 3.71429 13.0982 3.26493 12.595C2.81558 12.0917 2.47593 11.5005 2.2676 10.8588C2.2279 10.7359 2.22057 10.6049 2.24632 10.4785C2.27207 10.352 2.33003 10.2343 2.4146 10.1368L2.4246 10.1268C1.9172 9.67455 1.51052 9.12074 1.23093 8.50125C0.951327 7.88176 0.805056 7.21042 0.801596 6.53076V6.47776C0.801523 6.31311 0.85563 6.15302 0.955571 6.02217C1.05551 5.89133 1.19573 5.79701 1.3546 5.75376C1.01612 5.0784 0.840437 4.33319 0.841596 3.57776C0.841028 2.72093 1.06515 1.87893 1.4916 1.13576C1.55218 1.03026 1.63752 0.941088 1.74026 0.875926C1.84299 0.810765 1.96004 0.771572 2.0813 0.76173C2.20255 0.751888 2.32439 0.77169 2.43628 0.819431C2.54818 0.867171 2.64679 0.941415 2.7236 1.03576C4.47345 3.18991 6.9791 4.59545 9.7296 4.96576C9.70571 4.06594 9.93271 3.17724 10.3852 2.39909C10.8377 1.62095 11.4978 0.984082 12.2916 0.55976C12.6936 0.34576 13.2256 0.17476 13.7736 0.0807597ZM2.4936 7.62876C2.68778 8.17528 3.02053 8.66202 3.45928 9.04135C3.89803 9.42067 4.42775 9.67959 4.9966 9.79276C5.16049 9.82541 5.30878 9.91186 5.41793 10.0384C5.52709 10.1649 5.59087 10.3243 5.59914 10.4912C5.60741 10.6581 5.5597 10.823 5.46359 10.9597C5.36747 11.0964 5.22845 11.1971 5.0686 11.2458C4.79593 11.3284 4.51793 11.3861 4.2346 11.4188C4.54194 11.815 4.93407 12.1374 5.38224 12.3623C5.83041 12.5873 6.32324 12.7091 6.8246 12.7188C6.97925 12.7217 7.12922 12.7723 7.25396 12.8638C7.3787 12.9553 7.47211 13.0831 7.52139 13.2297C7.57066 13.3763 7.5734 13.5346 7.52922 13.6828C7.48504 13.8311 7.3961 13.962 7.2746 14.0578C6.23132 14.8774 5.01974 15.4562 3.7266 15.7528C4.79739 16.0958 5.91519 16.2696 7.0396 16.2678H7.0486C8.48862 16.2828 9.9172 16.0108 11.2509 15.4676C12.5846 14.9243 13.7967 14.1208 14.8164 13.1039C15.8361 12.087 16.643 10.8771 17.1899 9.54487C17.7368 8.21265 18.0127 6.78482 18.0016 5.34476V4.80976C18.0014 4.62765 18.0676 4.45171 18.1876 4.31476C18.2576 4.23576 18.3776 4.05376 18.5476 3.75476C18.7076 3.47276 18.8856 3.13276 19.0706 2.77376L19.1036 2.70776C18.5812 2.82518 18.0434 2.85793 17.5106 2.80476C17.3304 2.78514 17.1635 2.70095 17.0406 2.56776C16.5377 2.02244 15.868 1.65946 15.1366 1.53576C14.7677 1.48322 14.3927 1.49166 14.0266 1.56076C13.6697 1.61624 13.3231 1.72513 12.9986 1.88376C12.3443 2.23336 11.8245 2.79028 11.5208 3.46715C11.2171 4.14402 11.1467 4.90255 11.3206 5.62376C11.348 5.73717 11.3485 5.8554 11.3222 5.96905C11.2958 6.0827 11.2433 6.18864 11.1689 6.27844C11.0944 6.36825 11 6.43945 10.8932 6.48637C10.7864 6.5333 10.6701 6.55466 10.5536 6.54876C7.48141 6.39241 4.57701 5.0997 2.4046 2.92176C2.36234 3.1382 2.34124 3.35824 2.3416 3.57876V3.58076C2.34047 4.13151 2.47556 4.67398 2.73482 5.15989C2.99409 5.64579 3.36949 6.06005 3.8276 6.36576C3.96212 6.4563 4.06368 6.58801 4.11705 6.74113C4.17041 6.89426 4.17271 7.06056 4.1236 7.2151C4.07449 7.36965 3.97661 7.50411 3.84464 7.59834C3.71267 7.69257 3.55371 7.74148 3.3916 7.73776C3.08989 7.72824 2.78966 7.69143 2.4946 7.62776" fill="white"/>
</svg>
